<?xml version="1.0" encoding="UTF-8" standalone="no"?>
<!-- Created with Inkscape (http://www.inkscape.org/) -->

<svg
   width="350"
   height="350"
   viewBox="0 0 92.604164 92.604169"
   version="1.1"
   id="svg5"
   xmlns="http://www.w3.org/2000/svg"
   xmlns:svg="http://www.w3.org/2000/svg">
  <defs
     id="defs2" />
  <g
     id="layer1"
     transform="translate(-14.483859,-7.3018955)">
    <g
       aria-label="🔔"
       id="text4882"
       style="font-size:10.5833px;line-height:1.25;fill:#ffffff;stroke-width:0.264583"
       transform="matrix(8.9065933,0,0,7.7913289,-1217.759,-354.75565)">
      <path
         d="m 144.95077,47.46148 q 0.60978,0.21704 1.10587,0.604612 0.49609,0.382405 0.84749,0.888832 0.3514,0.50126 0.5426,1.100705 0.1912,0.599444 0.1912,1.24023 v 1.767329 q 0,0.377236 0.0724,0.702797 0.0775,0.320393 0.21704,0.60978 0.14469,0.289387 0.3514,0.552936 0.2067,0.263549 0.47025,0.516762 v 1.793167 h -3.49848 q -0.10852,0.253214 -0.28422,0.459919 -0.1757,0.206705 -0.39791,0.351398 -0.22221,0.144694 -0.48576,0.222208 -0.25838,0.08268 -0.53226,0.08268 -0.27389,0 -0.53743,-0.08268 -0.25839,-0.07751 -0.48059,-0.222208 -0.22221,-0.144693 -0.39791,-0.351398 -0.1757,-0.206705 -0.28422,-0.459919 h -3.49848 v -1.793167 q 0.26354,-0.253213 0.47025,-0.516762 0.2067,-0.263549 0.34623,-0.552936 0.14469,-0.289387 0.21704,-0.60978 0.0775,-0.325561 0.0775,-0.702797 v -1.767329 q 0,-0.640786 0.1912,-1.24023 0.1912,-0.599445 0.5426,-1.100705 0.3514,-0.506427 0.84749,-0.888832 0.49609,-0.387572 1.10587,-0.604612 0.0775,-0.222208 0.21704,-0.403075 0.13953,-0.186034 0.32039,-0.315225 0.18604,-0.129191 0.40308,-0.201537 0.22221,-0.07235 0.45992,-0.07235 0.23771,0 0.45475,0.07235 0.22221,0.07235 0.40307,0.201537 0.18604,0.129191 0.32556,0.315225 0.13953,0.180867 0.21705,0.403075 z m -5.86009,8.294041 v 0.744138 h 8.91415 v -0.744138 q -0.5426,-0.542601 -0.82682,-1.235063 -0.28422,-0.692462 -0.28422,-1.45727 v -1.767329 q 0,-0.465086 -0.13436,-0.909502 -0.12919,-0.449584 -0.37206,-0.837156 -0.23772,-0.392739 -0.57878,-0.707965 -0.33589,-0.320392 -0.75447,-0.527098 -0.18087,-0.08785 -0.37207,-0.149861 -0.1912,-0.06718 -0.38757,-0.124023 0,-0.170531 -0.0517,-0.320393 -0.0465,-0.149861 -0.13953,-0.263549 -0.093,-0.113687 -0.23254,-0.175699 -0.13952,-0.06718 -0.32039,-0.06718 -0.18087,0 -0.32039,0.06718 -0.13436,0.06718 -0.23255,0.180867 -0.093,0.10852 -0.14469,0.258381 -0.0465,0.149862 -0.0465,0.320393 -0.19637,0.05684 -0.38757,0.118856 -0.1912,0.06201 -0.37207,0.155028 -0.41858,0.211873 -0.75964,0.527098 -0.34107,0.315226 -0.58394,0.702798 -0.23771,0.387572 -0.36691,0.837155 -0.12919,0.444416 -0.12919,0.91467 v 1.767329 q 0,0.769976 -0.28422,1.45727 -0.28422,0.687295 -0.83198,1.235063 z m 4.45966,1.855178 q 0.1757,0 0.34106,-0.05168 0.16537,-0.05168 0.29972,-0.149861 0.13436,-0.09819 0.23771,-0.237711 0.10853,-0.134359 0.17054,-0.299723 h -2.10323 q 0.062,0.165364 0.16537,0.299723 0.10852,0.139526 0.24287,0.237711 0.13953,0.09819 0.29973,0.149861 0.16536,0.05168 0.34623,0.05168 z"
         id="path5338" />
    </g>
    <path
       style="fill:none;stroke:#ffffff;stroke-width:4.7625;stroke-linecap:round;stroke-linejoin:round;stroke-miterlimit:4;stroke-dasharray:none;stroke-opacity:1"
       d="m 66.895621,25.577049 c 17.2686,5.377584 17.700466,22.068111 17.700466,22.068111"
       id="path1102" />
  </g>
</svg>
