<?xml version="1.0" encoding="UTF-8" standalone="no"?>
<!-- Created with Inkscape (http://www.inkscape.org/) -->

<svg
   width="350"
   height="350"
   viewBox="0 0 92.604164 92.604169"
   version="1.1"
   id="svg5"
   xmlns="http://www.w3.org/2000/svg"
   xmlns:svg="http://www.w3.org/2000/svg">
  <defs
     id="defs2" />
  <g
     id="layer1"
     transform="translate(-6.3410223,-5.0878357)">
    <path
       d="m 47.079181,5.3918548 q 2.749986,-0.3040191 5.563925,-0.3040191 2.813939,0 5.563924,0.3040191 l 1.662782,11.3703082 q 4.284862,0.790449 8.377868,2.614563 l 8.058093,-8.0261 q 4.860444,2.73617 8.953439,6.627612 l -5.372066,9.485392 q 3.005803,3.040189 5.11626,6.688415 l 10.552266,-1.884917 q 2.366273,5.107518 3.389517,10.701466 l -9.465061,4.19546 q 0.255806,2.128137 0.255806,4.195464 0,2.067327 -0.255806,4.195464 l 9.465061,4.256264 Q 97.921945,65.344391 95.555672,70.45191 L 85.003406,68.566991 q -2.110457,3.648228 -5.11626,6.749219 l 5.372066,9.424581 q -4.092995,3.891446 -8.953439,6.68842 L 68.24768,83.40311 q -4.093006,1.763309 -8.377868,2.614563 L 58.20703,97.327175 q -2.749985,0.364827 -5.563924,0.364827 -2.813939,0 -5.563925,-0.364827 L 45.4164,86.017673 Q 41.131538,85.166419 37.038536,83.40311 l -8.058097,8.026101 q -4.860441,-2.796974 -8.953442,-6.68842 L 25.399062,75.31621 Q 22.393264,72.276018 20.28281,68.566991 L 9.730539,70.45191 Q 7.3642722,65.344391 6.3410223,59.811246 l 9.4650667,-4.256264 q -0.255813,-2.128137 -0.255813,-4.195464 0,-2.067327 0.255813,-4.195464 L 6.3410223,42.968594 Q 7.3642722,37.374646 9.730539,32.267128 l 10.552271,1.884917 q 2.110454,-3.648226 5.116252,-6.74922 l -5.372065,-9.424587 q 4.093001,-3.891442 8.953442,-6.627612 l 8.058097,7.965296 q 4.093002,-1.76331 8.377864,-2.553759 z M 72.532542,32.510343 q -8.24996,-7.904492 -19.889436,-7.904492 -11.639474,0 -19.889431,7.904492 -8.249958,7.843689 -8.249958,18.909974 0,11.005492 8.249958,18.849174 8.249957,7.843691 19.889431,7.843691 11.639476,0 19.889436,-7.843691 8.24995,-7.843682 8.24995,-18.849174 0,-11.066285 -8.24995,-18.909974 z M 59.614,44.731909 q 2.941849,2.736163 2.941849,6.627609 0,3.891436 -2.941849,6.688418 -2.877892,2.736164 -6.970894,2.736164 -4.093002,0 -7.034847,-2.736164 -2.877892,-2.796982 -2.877892,-6.688418 0,-3.891446 2.877892,-6.627609 2.941845,-2.796979 7.034847,-2.796979 4.093002,0 6.970894,2.796979 z"
       id="path1821"
       style="font-size:124.957px;line-height:1.25;fill:#ffffff;fill-opacity:1;stroke:none;stroke-width:1.08165;stroke-miterlimit:4;stroke-dasharray:none;stroke-opacity:1" />
  </g>
</svg>
