<svg width="15" height="16" viewBox="0 0 15 16" fill="none" xmlns="http://www.w3.org/2000/svg">
<path fill-rule="evenodd" clip-rule="evenodd" d="M14 2C14 1.44772 13.5523 1 13 1H6.5C6.22386 1 6 0.776142 6 0.5C6 0.223858 6.22386 0 6.5 0H14C14.5523 0 15 0.447702 15 0.99997V1V14.9854C15 15.5377 14.5523 15.9854 14 15.9854H6.5C6.22386 15.9854 6 15.7615 6 15.4854C6 15.2092 6.22386 14.9854 6.5 14.9854H13C13.5523 14.9854 14 14.5377 14 13.9854L14 2Z" fill="#C8C8C8"/>
<path d="M1 7.48535C0.723858 7.48535 0.5 7.70921 0.5 7.98535C0.5 8.26149 0.723858 8.48535 1 8.48535V7.48535ZM10.3536 8.3389C10.5488 8.14364 10.5488 7.82706 10.3536 7.6318L7.17157 4.44982C6.97631 4.25456 6.65973 4.25456 6.46447 4.44982C6.2692 4.64508 6.2692 4.96166 6.46447 5.15692L9.29289 7.98535L6.46447 10.8138C6.2692 11.009 6.2692 11.3256 6.46447 11.5209C6.65973 11.7161 6.97631 11.7161 7.17157 11.5209L10.3536 8.3389ZM1 8.48535H10V7.48535H1V8.48535Z" fill="#C8C8C8"/>
</svg>
